<?xml-stylesheet type="text/css" href="Svgstyle.css"?>
<svg xmlns="http://www.w3.org/2000/svg" xmlns:xlink="http://www.w3.org/1999/xlink">
  <symbol id="logo-pink-white-mobile" viewBox="0 0 74.426 22.859">
    <path d="M0 1.449C0 .741.58.161 1.256.161h7.18c5.087 0 8.436 2.704 8.436 7.147v.064c0 4.861-4.057 7.373-8.854 7.373H2.544v6.825c0 .708-.58 1.288-1.288 1.288C.58 22.859 0 22.279 0 21.571zm8.114 10.979c3.734 0 6.182-1.996 6.182-4.958v-.065c0-3.22-2.415-4.894-6.054-4.894H2.544v9.917zm13.615-11.14C21.729.58 22.308 0 22.983 0c.709 0 1.288.58 1.288 1.288v20.283c0 .708-.579 1.288-1.288 1.288-.676 0-1.255-.58-1.255-1.288V1.288zm9.141.032c0-.676.579-1.256 1.256-1.256h.354c.58 0 .934.29 1.288.74l13.684 17.45V1.256A1.256 1.256 0 0 1 48.707 0c.676 0 1.223.58 1.223 1.256v20.348c0 .676-.482 1.191-1.158 1.191h-.129c-.548 0-.934-.322-1.32-.772L33.349 4.153v17.45c0 .676-.547 1.256-1.255 1.256-.677 0-1.224-.58-1.224-1.256zm25.43-.032C56.3.58 56.879 0 57.556 0c.708 0 1.287.58 1.287 1.288v12.331L71.689.451c.29-.258.58-.451.999-.451.676 0 1.224.612 1.224 1.256 0 .354-.161.644-.419.901l-7.984 7.92 8.564 10.561c.225.29.354.547.354.934 0 .676-.579 1.288-1.287 1.288-.483 0-.806-.258-1.03-.58l-8.403-10.463-4.862 4.861v4.894c0 .708-.579 1.288-1.287 1.288-.677 0-1.256-.58-1.256-1.288V1.288z"/>
  </symbol>
  <symbol id="logo-pink-white-tablet" viewBox="0 0 146.3 40.375">
    <path d="M71.874 18.661c0-.708.58-1.288 1.256-1.288h7.18c5.087 0 8.436 2.704 8.436 7.146v.064c0 4.861-4.057 7.373-8.854 7.373h-5.475v6.825c0 .708-.58 1.288-1.288 1.288-.676 0-1.256-.58-1.256-1.288v-20.12zm8.114 10.98c3.734 0 6.182-1.996 6.182-4.959v-.063c0-3.22-2.414-4.894-6.053-4.894h-5.699v9.917h5.57v-.001zM93.603 18.5c0-.708.579-1.288 1.255-1.288.709 0 1.288.58 1.288 1.288v20.283a1.29 1.29 0 0 1-1.288 1.287c-.676 0-1.255-.579-1.255-1.287V18.5zm9.141.032c0-.676.58-1.256 1.256-1.256h.354c.58 0 .935.29 1.288.74l13.684 17.45V18.468c0-.676.547-1.256 1.256-1.256.676 0 1.224.58 1.224 1.256v20.349c0 .676-.481 1.19-1.158 1.19h-.129c-.548 0-.935-.321-1.319-.772l-13.975-17.868v17.45c0 .676-.547 1.256-1.256 1.256-.676 0-1.223-.58-1.223-1.256V18.532h-.002zm25.429-.032c0-.708.58-1.288 1.257-1.288.708 0 1.286.58 1.286 1.288v12.331l12.848-13.168c.29-.257.579-.451.998-.451.676 0 1.225.612 1.225 1.256 0 .354-.162.644-.42.901l-7.984 7.92 8.564 10.561c.225.291.354.547.354.935 0 .676-.578 1.288-1.286 1.288-.483 0-.806-.258-1.03-.58l-8.402-10.463-4.863 4.861v4.894a1.29 1.29 0 0 1-1.286 1.288c-.677 0-1.257-.58-1.257-1.288V18.5h-.004zm-67.711 9.516L55.287 6.651C54.926 4.303 52.694 0 46.688 0a1.5 1.5 0 1 0 0 3c4.856 0 5.575 3.729 5.639 4.143l4.767 19.701h-2.073c-.742-5.927-5.802-10.531-11.927-10.531s-11.186 4.604-11.927 10.531h-1.82c-.741-5.927-5.802-10.531-11.927-10.531S6.235 20.917 5.493 26.844H3.42L8.187 7.143C8.25 6.729 8.97 3 13.826 3a1.5 1.5 0 1 0 0-3C7.82 0 5.588 4.303 5.227 6.651L.052 28.016c-.266 1.109.531 1.826 1.426 1.826.012 0 .023.004.036.004h3.982c.741 5.926 5.802 10.53 11.927 10.53s11.185-4.604 11.927-10.53h1.814c.742 5.926 5.802 10.53 11.927 10.53s11.186-4.604 11.927-10.53H59c.012 0 .023-.004.036-.004.895 0 1.692-.717 1.426-1.826zm-34.147 1.828c-.715 4.272-4.421 7.531-8.896 7.531-4.475 0-8.18-3.259-8.896-7.531-.082-.488-.135-.988-.135-1.5s.053-1.011.135-1.5c.715-4.271 4.421-7.531 8.896-7.531 4.475 0 8.18 3.26 8.896 7.531.082.489.135.988.135 1.5s-.053 1.011-.135 1.5zm25.675 0c-.716 4.272-4.421 7.531-8.896 7.531-4.475 0-8.181-3.259-8.896-7.531-.082-.488-.135-.988-.135-1.5s.053-1.011.135-1.5c.716-4.271 4.421-7.531 8.896-7.531 4.475 0 8.181 3.26 8.896 7.531.082.489.135.988.135 1.5s-.053 1.011-.135 1.5z"/>
  </symbol>
  <symbol xmlns="http://www.w3.org/2000/svg" width="146.3" height="40.375" viewBox="0 0 146.3 40.375">
      <path d="M71.874 18.661c0-.708.58-1.288 1.256-1.288h7.18c5.087 0 8.436 2.704 8.436 7.146v.064c0 4.861-4.057 7.373-8.854 7.373h-5.475v6.825c0 .708-.58 1.288-1.288 1.288-.676 0-1.256-.58-1.256-1.288v-20.12zm8.114 10.98c3.734 0 6.182-1.996 6.182-4.959v-.063c0-3.22-2.414-4.894-6.053-4.894h-5.699v9.917h5.57v-.001zM93.603 18.5c0-.708.579-1.288 1.255-1.288.709 0 1.288.58 1.288 1.288v20.283a1.29 1.29 0 0 1-1.288 1.287c-.676 0-1.255-.579-1.255-1.287V18.5zm9.141.032c0-.676.58-1.256 1.256-1.256h.354c.58 0 .935.29 1.288.74l13.684 17.45V18.468c0-.676.547-1.256 1.256-1.256.676 0 1.224.58 1.224 1.256v20.349c0 .676-.481 1.19-1.158 1.19h-.129c-.548 0-.935-.321-1.319-.772l-13.975-17.868v17.45c0 .676-.547 1.256-1.256 1.256-.676 0-1.223-.58-1.223-1.256V18.532h-.002zm25.429-.032c0-.708.58-1.288 1.257-1.288.708 0 1.286.58 1.286 1.288v12.331l12.848-13.168c.29-.257.579-.451.998-.451.676 0 1.225.612 1.225 1.256 0 .354-.162.644-.42.901l-7.984 7.92 8.564 10.561c.225.291.354.547.354.935 0 .676-.578 1.288-1.286 1.288-.483 0-.806-.258-1.03-.58l-8.402-10.463-4.863 4.861v4.894a1.29 1.29 0 0 1-1.286 1.288c-.677 0-1.257-.58-1.257-1.288V18.5h-.004z" fill="#FFFFFF"/>
      <path fill="#D22856" d="M98.498 9.875a3.623 3.623 0 0 1-3.623-3.624 3.625 3.625 0 0 1-3.625 3.624 3.625 3.625 0 0 1 3.625 3.624 3.623 3.623 0 0 1 3.623-3.624z"/>
    <g fill="#FFFFFF">
      <path d="M43.094 19.313c.246 0 .489.014.73.033a2.491 2.491 0 0 0-2.136-1.221 1.994 1.994 0 0 1-1.884-1.354c-.727.208-1.425.482-2.089.816.062.017.122.038.188.038a2 2 0 0 1 2 2c0 .096-.015.188-.028.281 1-.382 2.084-.593 3.219-.593z"/>
      <path d="M60.462 28.016L55.287 6.651C54.926 4.303 52.694 0 46.688 0a1.5 1.5 0 1 0 0 3c4.856 0 5.575 3.729 5.639 4.143l4.767 19.701h-2.073c-.445-3.557-2.453-6.628-5.305-8.522a2.503 2.503 0 0 0-1.529 2.303c0 .088-.015.171-.026.256a9.034 9.034 0 0 1 3.829 5.964c.082.489.135.988.135 1.5s-.053 1.012-.135 1.5c-.716 4.272-4.421 7.531-8.896 7.531-4.475 0-8.181-3.259-8.896-7.531-.082-.488-.135-.988-.135-1.5s.053-1.011.135-1.5a8.949 8.949 0 0 1 .808-2.483 1.995 1.995 0 0 1-1.852-1.985.743.743 0 0 0-.192-.489 11.954 11.954 0 0 0-1.795 4.958h-1.82c-.741-5.927-5.802-10.531-11.927-10.531S6.235 20.917 5.493 26.844H3.42L8.187 7.143C8.25 6.729 8.97 3 13.826 3a1.5 1.5 0 1 0 0-3C7.82 0 5.588 4.303 5.227 6.651L.052 28.016c-.266 1.109.531 1.826 1.426 1.826.012 0 .023.004.036.004h3.982c.079.628.215 1.237.387 1.831a.726.726 0 0 0 .102-.354 2 2 0 0 1 2-2c.166 0 .324.025.478.063a8.337 8.337 0 0 1-.074-1.042c0-.512.053-1.011.135-1.5.715-4.271 4.421-7.531 8.896-7.531s8.18 3.26 8.896 7.531c.082.489.135.988.135 1.5s-.053 1.012-.135 1.5c-.715 4.272-4.421 7.531-8.896 7.531a8.959 8.959 0 0 1-5.386-1.794c-.35.302-.8.491-1.299.491a.75.75 0 0 0-.749.748c0 .29-.065.564-.176.812a11.94 11.94 0 0 0 7.614 2.743c6.125 0 11.185-4.604 11.927-10.53h1.814c.742 5.926 5.802 10.53 11.927 10.53s11.186-4.604 11.927-10.53H59c.012 0 .023-.004.036-.004.895.001 1.692-.716 1.426-1.825z"/>
    </g>
    <path fill="#D22856" d="M50.686 16.125a4.499 4.499 0 0 1-4.499-4.499 4.499 4.499 0 0 1-4.499 4.499 4.499 4.499 0 0 1 4.499 4.499 4.498 4.498 0 0 1 4.499-4.499zm-12.782 3.501a2.748 2.748 0 0 1-2.749-2.749 2.748 2.748 0 0 1-2.749 2.749 2.747 2.747 0 0 1 2.749 2.749 2.748 2.748 0 0 1 2.749-2.749zm-27.17 14.446a2.748 2.748 0 0 1-2.749-2.75c0 1.52-1.23 2.75-2.749 2.75a2.747 2.747 0 0 1 2.749 2.748 2.748 2.748 0 0 1 2.749-2.748z"/>
  </symbol>
  <symbol id="logo-apple" viewBox="0 0 46.21 56.753">
    <path fill="#ffffff" d="M38.593,30.15c0.081,8.59,7.535,11.447,7.617,11.483c-0.062,0.202-1.19,4.073-3.927,8.072 c-2.365,3.457-4.82,6.901-8.688,6.973c-3.799,0.07-5.021-2.253-9.365-2.253c-4.344,0-5.702,2.182-9.298,2.32 c-3.733,0.142-6.576-3.739-8.961-7.184c-4.875-7.046-8.598-19.91-3.597-28.593c2.484-4.313,6.925-7.043,11.743-7.114 c3.666-0.069,7.126,2.466,9.366,2.466c2.241,0,6.444-3.049,10.865-2.601c1.85,0.077,7.044,0.747,10.38,5.629 C44.459,19.519,38.531,22.971,38.593,30.15 M31.453,9.062C33.435,6.662,34.769,3.323,34.405,0c-2.857,0.115-6.312,1.904-8.36,4.302 c-1.837,2.123-3.445,5.521-3.011,8.778C26.218,13.326,29.47,11.461,31.453,9.062"/>
  </symbol>
  <symbol id="logo-android" viewBox="0 0 42.084 47.041">
    <g fill="#A4C639">
      <path d="M34.144,14.009H7.945c-0.009,0.11-0.018,0.22-0.018,0.333v18.755c0,1.926,1.457,3.49,3.316,3.627v7.43 c0,1.594,1.291,2.885,2.885,2.885c1.593,0,2.885-1.291,2.885-2.885v-7.42h8.058v7.42c0,1.594,1.291,2.885,2.885,2.885 c1.595,0,2.886-1.291,2.886-2.885v-7.434c1.858-0.137,3.315-1.701,3.315-3.627V14.342C34.157,14.229,34.153,14.119,34.144,14.009z"/>
      <path d="M2.886,15.679L2.886,15.679c1.593,0,2.886,1.292,2.886,2.885v12.378 c0,1.595-1.292,2.886-2.886,2.886l0,0C1.292,33.828,0,32.537,0,30.942V18.564C0,16.97,1.292,15.679,2.886,15.679z"/>
      <path d="M39.198,15.679L39.198,15.679c1.595,0,2.886,1.292,2.886,2.885v12.378 c0,1.595-1.291,2.886-2.886,2.886l0,0c-1.594,0-2.885-1.291-2.885-2.886V18.564C36.313,16.97,37.604,15.679,39.198,15.679z"/>
      <path d="M8.03,11.967h26.026c-0.039-2.783-1.234-5.322-3.187-7.275l2.446-4.235c0.082-0.146,0.031-0.331-0.112-0.415 c-0.146-0.084-0.331-0.034-0.415,0.111L30.416,4.26c-2.052-1.853-6.249-3.4-9.374-3.4l0,0c-3.016,0-7.322,1.547-9.374,3.4 L9.296,0.152C9.213,0.007,9.027-0.042,8.881,0.041C8.736,0.125,8.686,0.311,8.77,0.456l2.445,4.235 C9.265,6.645,8.068,9.184,8.03,11.967z M25.323,6.804c-0.002-0.805,0.664-1.46,1.488-1.462c0.826-0.002,1.494,0.648,1.498,1.454 c0,0.002,0,0.005,0,0.008c0.002,0.805-0.664,1.46-1.49,1.462c-0.823,0.002-1.493-0.649-1.496-1.454 C25.323,6.81,25.323,6.807,25.323,6.804z M14.18,6.804c-0.001-0.805,0.665-1.46,1.489-1.462c0.824-0.002,1.494,0.648,1.497,1.454 c0,0.002,0,0.005,0,0.008c0.002,0.805-0.664,1.46-1.488,1.462c-0.825,0.002-1.495-0.649-1.498-1.454 C14.18,6.81,14.18,6.807,14.18,6.804z"/>
    </g>
  </symbol>
  <symbol id="logo-microsoft" viewBox="0 0 43.922 41.992">
    <g>
      <path fill="#F05423" d="M20.874,19.953H0V0h20.874V19.953z"/>
      <path fill="#84C441" d="M43.922,19.953H23.049V0h20.873V19.953z"/>
      <path fill="#2DABE2" d="M20.873,41.992H0V22.04h20.873V41.992z"/>
      <path fill="#F9BC15" d="M43.922,41.992H23.049V22.04h20.873V41.992z"/>
    </g>
  </symbol>
  <symbol id="icon-twitter" viewBox="0 0 17.5 14.663">
    <path fill="#d22856" fill-rule="evenodd" clip-rule="evenodd" d="M11.283,0.153c1.736-0.485,3.074,0.263,3.685,1.151 c0.694-0.226,1.372-0.47,2.072-0.691c-0.004,0.841-0.538,1.478-0.883,1.727C16.861,2.506,17.5,1.86,17.5,1.86 c-0.175,0.976-1.035,1.746-1.611,1.977C15.65,10.429,12.617,14.793,5.507,14.66c-0.538,0,0.077,0-0.46,0 c-0.422,0-4.29-0.45-5.047-1.843c2.341,0.192,4.011-0.412,4.835-1.15c-0.989-0.293-2.761-0.464-3.07-2.881 c0.362,0.105,0.583,0.223,1.228,0.117C1.757,8.067,0.385,7.366,0.461,5.218c0.294,0.32,1.1,0.523,1.381,0.461 c-0.725-0.235-2.03-3.281-0.921-4.836C2.794,2.654,4.769,4.364,8.29,4.528C8.506,2.288,9.461,0.787,11.283,0.153z"/>
  </symbol>
  <symbol id="icon-facebook" viewBox="0 0 8.673 18.944">
    <path fill="#d22856" d="M6.275,3.357c0.799,0,1.599,0,2.398,0c0-1.119,0-2.238,0-3.357c-0.959,0-1.92,0-2.878,0C2.656,0.181,1.54,2.387,1.948,6.115 H0v3.517h1.958c0,3.104,0,6.208,0,9.312c1.279,0,2.558,0,3.837,0c0-3.104,0-6.208,0-9.312h2.857V6.115H5.786 C5.765,5.07,5.75,3.709,6.275,3.357z"/>
  </symbol>
  <symbol id="icon-youtube" viewBox="0 0 14.64 13.96">
    <path fill="#d22856" d="M1.775,13.78C0.799,14.257,0,13.758,0,12.671V1.29c0-1.088,0.799-1.585,1.775-1.109l12.133,5.932 c0.975,0.478,0.975,1.258,0,1.736L1.775,13.78z"/>
  </symbol>
  <symbol id="logo-htmlacademy" viewBox="0 0 26.943 34.09">
    <path d="M13.62,0.017L13.472,0L0,1.412v24.661l13.472,8.017l13.43-7.99l0.042-0.026V1.412L13.62,0.017z M25.019,12.127L13.495,5.334 l-0.001-0.104L13.407,5.28l-0.088-0.056v0.109L1.925,12.118V3.147l11.547-1.212l11.547,1.212V12.127z M13.405,6.787L24.923,13.5 l-4.479,2.64l-7.093-4.221l-0.013,1.415l5.904,3.513l-0.86,0.507l-5.031-2.992l-0.013,1.415l3.827,2.275l-0.782,0.523l-3.032-1.787 l-0.013,1.413l1.852,1.091l-1.8,1.081L2.034,13.622L13.405,6.787z M1.925,15.127l11.411,6.791l0.015,1.044l-7.941-4.728L5.395,19.65 l7.979,4.796l0.017,1.076l-7.972-4.741l-0.013,1.415l8.021,4.821l0.045,0.026l8.143-4.872v-1.268l-0.011-0.148v-3.761l3.415-2.036 v10.02L13.472,31.85L1.925,24.979V15.127z"/>
  </symbol>
  <symbol id="icon-heart" viewBox="521.939 473.064 12.545 11.99">
    <path d="M528.174,485.055c-0.212,0-0.412-0.091-0.552-0.249c-3.798-4.324-4.644-5.298-4.858-5.572l-0.004,0.0 c-0.529-0.675-0.821-1.518-0.821-2.373c0-2.095,1.704-3.799,3.799-3.799c0.934,0,1.804,0.32,2.484,0.898 c0.696-0.578,1.56-0.898,2.463-0.898c2.095,0,3.799,1.704,3.799,3.799c0,0.909-0.318,1.754-0.896,2.381l-4.86,5.561 C528.587,484.964,528.386,485.055,528.174,485.055L528.174,485.055z M523.929,478.349c0.208,0.255,2.471,2.839,4.243,4.858 l4.323-4.944c0.34-0.369,0.52-0.86,0.52-1.399c0-1.285-1.045-2.331-2.33-2.331c-0.729,0-1.421,0.344-1.9,0.943 c-0.142,0.178-0.353,0.267-0.585,0.275c-0.227-0.003-0.439-0.111-0.575-0.294c-0.441-0.587-1.129-0.925-1.887-0.925 c-1.285,0-2.33,1.046-2.33,2.331c0,0.678,0.275,1.171,0.507,1.467C523.919,478.336,523.925,478.342,523.929,478.349z"/>
  </symbol>
</svg>
